<svg xmlns="http://www.w3.org/2000/svg" xmlns:xlink="http://www.w3.org/1999/xlink" version="1.1" x="0px" y="0px" viewBox="0 0 1920 1080" style="enable-background:new 0 0 1920 1080;" xml:space="preserve">
<style xmlns="http://www.w3.org/2000/svg" type="text/css">
	.st0{opacity:0.1;fill:#f09f54;}
	.st1{fill:#FCD2B1;}
	.st2{fill-rule:evenodd;clip-rule:evenodd;fill:#f09f54;}
	.st3{fill:#FFE3CA;}
	.st4{fill-rule:evenodd;clip-rule:evenodd;fill:#f09f54;}
	.st5{fill-rule:evenodd;clip-rule:evenodd;fill:#FFE3CA;}
	.st6{fill:#f09f54;}
	.st7{opacity:0.26;fill:#FFFFFF;}
	.st8{fill:#f09f54;}
	.st9{fill-rule:evenodd;clip-rule:evenodd;fill:#f09f54;}
</style>
<g xmlns="http://www.w3.org/2000/svg" id="Background">
	<ellipse class="st0" cx="980.3" cy="960.3" rx="472.9" ry="112.1"/>
	<path class="st0" d="M719.7,954.9c0,0-176.5-23.8-188.2-329.5C521.3,358,910.7,129.6,971.9,19.2c11.3-20.4,32.6-25.2,48.6-11.5   c29.8,25.6,64.5,70.9,68.8,144.9c7.8,133,169.9,48.5,195.1,34.4c11.3-6.3,21.7,10.8,15,24.5c-35.5,72-88,216.9,10.3,302.3   c134.5,116.9,64.7,296.3-42.9,351.7C1159.1,921,983.9,1030.8,719.7,954.9z"/>
</g>
<g xmlns="http://www.w3.org/2000/svg" id="Character">
	<g>
		<g>
			<path class="st1" d="M820,511.2c-0.9,11-1.4,22.8,2.4,32.6c3.8,9.9,13.6,16.6,20.9,11.2c4.1-3,6.5-8.9,8.7-14.5     c12.1-31.3,24.1-62.6,36.2-93.8c9.9-25.8,20.2-53.1,18.9-82.1c-0.6-13.4-3.8-26.7-9.8-37.3c-5.3-9.3-16.9-24.2-24.9-13.3     c-7.9,10.8-13.4,29.8-18.4,43.2c-11.6,31-20.5,63.7-26.6,97.4C824,473.3,821.5,492.2,820,511.2z"/>
			<path class="st2" d="M906.9,370.8c-0.6-14.9-4.2-29.7-11-41.5c-5.9-10.4-9.4-36.4-18.3-24.3c-8.8,12.1-24.3,42.7-29.9,57.6     c-7.3,19.7-13.7,40-19.1,60.7l57.8,37.1C897.4,432.2,908.3,402.3,906.9,370.8z"/>
		</g>
		<g>
			<path class="st1" d="M1140.7,511.2c0.9,11,1.4,22.8-2.4,32.6c-3.8,9.9-13.6,16.6-20.9,11.2c-4.1-3-6.5-8.9-8.7-14.5     c-12.1-31.3-24.1-62.6-36.2-93.8c-9.9-25.8-20.2-53.1-18.9-82.1c0.6-13.4,3.8-26.7,9.8-37.3c5.3-9.3,16.9-24.2,24.9-13.3     c7.9,10.8,13.4,29.8,18.4,43.2c11.6,31,20.5,63.7,26.6,97.4C1136.7,473.3,1139.1,492.2,1140.7,511.2z"/>
			<path class="st2" d="M1053.6,370.8c0.6-14.9,4.2-29.7,11-41.5c5.9-10.4,9.4-36.4,18.3-24.3c8.8,12.1,24.3,42.7,29.9,57.6     c7.3,19.7,13.7,40,19.1,60.7l-57.8,37.1C1063.1,432.2,1052.2,402.3,1053.6,370.8z"/>
		</g>
		<path class="st2" d="M875.4,308.4c5.6-9,14.1-14,22.4-18c24.4-11.8,80.4-42.9,82.5-42.8c2.1-0.1,58.1,30.9,82.5,42.8    c8.3,4,16.8,9,22.4,18c7.5,12,8.5,29.4,5.8,44.6c-2.7,15.2-8.6,29-13.7,43.1c-6.4,17.5-11.7,35.8-15.9,54.5    c-7.5,33.8-11.3,69-11.2,104.2c0,10.8,4.4,29.1,1.9,39.2c-3.1,12.8-19.8,15.7-28.2,17.1c-14.4,2.5-29,3.3-43.5,2.5    c-14.5,0.8-29.1,0-43.5-2.5c-8.4-1.4-25.1-4.3-28.2-17.1c-2.5-10.2,1.8-28.4,1.9-39.2c0.1-35.2-3.7-70.4-11.2-104.2    c-4.2-18.7-9.5-36.9-15.9-54.5c-5.1-14.1-11-27.9-13.7-43.1C866.9,337.8,867.8,320.5,875.4,308.4z"/>
		<g>
			<path class="st1" d="M956,243.9c3-9.7,4.6-27.8,10.6-34.3c3.6-3.9,22.4-3.9,26,0c6,6.4,7.6,24.6,10.6,34.3     c3.4,10.9,6.3,23.9,2.8,34.6c-2.5,7.5-7.7,12-13,13.6c-4.4,1.3-22.4,1.3-26.8,0c-5.3-1.5-10.5-6-13-13.6     C949.6,267.8,952.6,254.7,956,243.9z"/>
			<path class="st3" d="M939.8,162.2c6-17.6,73.5-17.6,79.6,0c4.8,14,5.5,29.8,2.8,44.6c-2.6,13.9-6.5,58.2-42.5,58.2     c-36,0-40-44.3-42.5-58.2C934.3,192,935,176.2,939.8,162.2z"/>
			<path class="st4" d="M979.6,106.4c19.7-2.3,52.7,22.1,58.7,29.4c6,7.4,7.3,18.8,3,27.4c-2.6,5.2-6.9,9.4-8.8,14.9     c-2.2,6.3,0.3,21.6-7.2,24.5c-5.8,2.3-7.5-41.5-59.5-39.7c-4.7,0.2-8.4-5.7-12.8-4.2c-2.9,1-6.5,2.4-8.4,5     c-4.6,6.3-3.2,35-9.5,39.8c-3.4-10.1-4.7-21-4-31.8C928.1,171.8,911.2,114.3,979.6,106.4z"/>
			<path class="st3" d="M1029.7,205.7c1.6-3,3-6.4,2.5-9.9c-0.5-3.4-3.3-6.7-6.5-6.3c-2,0.2-3.7,1.8-4.7,3.6c-1,1.8-1.5,4-2,6.1     c-0.8,3.6-1.6,7.3-2.4,10.9c-0.7,3.1-1.1,7,1.4,8.7C1022.4,222.1,1028,208.9,1029.7,205.7z"/>
			<path class="st3" d="M929.9,205.7c-1.6-3-3-6.4-2.5-9.9c0.5-3.4,3.3-6.7,6.5-6.3c2,0.2,3.7,1.8,4.7,3.6c1,1.8,1.5,4,2,6.1     c0.8,3.6,1.6,7.3,2.4,10.9c0.7,3.1,1.1,7-1.4,8.7C937.2,222.1,931.7,208.9,929.9,205.7z"/>
		</g>
	</g>
	<path class="st5" d="M1066.5,524.8L1066.5,524.8c-18.4,0-45.9-7.3-45.9-25.6l-9.4-30.4c-2-6.5,5.5-11.9,11-7.8l10.5,16.7   c4,2.4,6.5,0.8,5.9-3.8l-5.4-48.1c0-10.5,10.3-16.1,16.6-8.9l41.4,27.7c5.5,6.1,8.5,14,8.5,22.2v24.9   C1099.7,509.9,1084.8,524.8,1066.5,524.8z"/>
	<path class="st5" d="M862,524.8L862,524.8c18.4,0,45.9-7.3,45.9-25.6l9.4-30.4c2-6.5-5.5-11.9-11-7.8l-10.5,16.7   c-4,2.4-6.5,0.8-5.9-3.8l5.4-48.1c0-10.5-10.3-16.1-16.6-8.9l-41.4,27.7c-5.5,6.1-8.5,14-8.5,22.2v24.9   C828.8,509.9,843.6,524.8,862,524.8z"/>
</g>
<g xmlns="http://www.w3.org/2000/svg" id="Fire">
	<path class="st6" d="M1071.3,465.8c-10.1,9.8-30.2,29.6-53,54.8c-5.2,5.7-14,6.3-19.9,1.3c-50.1-42.6-61.2-75.4-63.5-90.4   c-0.6-3.8-5.1-5.6-8.1-3.2c-40,31.3-222.3,178.9-222.3,275.3c0,108.3,87.8,196.1,196.1,196.1c32.9,0,146.3,0,177.7,0   c98.1,0,177.7-79.6,177.7-177.7c0-86.4-137.6-224.3-170.6-256.1C1081.5,462,1075.3,462,1071.3,465.8z"/>
	<path class="st7" d="M1038.8,586.9c-6.9,7.4-18.9,20.6-32.6,37c-3.5,4.2-10,4.1-13.3-0.3c-23.9-31.7-48-58.1-58.9-69.8   c-3.4-3.6-9-3.6-12.4,0c-25.8,27.4-123.2,135.6-123.2,203.8c0,78.5,57.9,142.1,129.4,142.1c21.7,0,96.5,0,117.2,0   c64.7,0,117.2-57.7,117.2-128.8c0-61.2-86.8-158.2-111-184C1047.8,583.3,1042.2,583.3,1038.8,586.9z"/>
	<path class="st8" d="M1220,993.5H740.7c-20.6,0-37.3-16.7-37.3-37.3v-39.7c0-20.6,16.7-37.3,37.3-37.3H1220   c20.6,0,37.3,16.7,37.3,37.3v39.7C1257.3,976.8,1240.6,993.5,1220,993.5z"/>
	<ellipse class="st9" cx="1229.3" cy="502.1" rx="11.6" ry="11.7"/>
	<ellipse class="st9" cx="764.6" cy="401.9" rx="11.6" ry="11.7"/>
	<ellipse class="st9" cx="654.3" cy="680.4" rx="17" ry="17.2"/>
</g>
</svg>