<svg xmlns="http://www.w3.org/2000/svg" xmlns:xlink="http://www.w3.org/1999/xlink" version="1.1" id="Wilderness" x="0px" y="0px" viewBox="0 0 1920 1080" enable-background="new 0 0 1920 1080" xml:space="preserve">
<path xmlns="http://www.w3.org/2000/svg" opacity="0.1" fill="#f09f54" d="M1080.45,397.707c0,0-396.891,136.364-55.448,177.289S1489.015,1080,1489.015,1080H356.707  c0,0,477.236-416.561,344.385-490.345s367.685-207.23,367.685-207.23l46.693,4.474L1080.45,397.707z"/>
<path xmlns="http://www.w3.org/2000/svg" opacity="0.1" fill="#f09f54" d="M61.328,409.439c0,0,510.398-335.566,564.504-330.405c32.917,3.14,98.58,11.84,163.598,39.551  c233.712,99.61,312.814,236.636,397.31,283.435C1186.74,402.02,94.449,410.604,61.328,409.439z"/>
<path xmlns="http://www.w3.org/2000/svg" opacity="0.1" fill="#f09f54" d="M562.475,399.996c0,0,586.039-376.592,648.279-370.654  c37.866,3.612,113.401,13.62,188.195,45.498c268.85,114.586,359.846,272.214,457.046,326.049  C1855.996,400.889,600.577,401.335,562.475,399.996z"/>
<path xmlns="http://www.w3.org/2000/svg" opacity="0.15" fill="#f09f54" d="M1920,400.127c0,0-393.168-142.019-680.906-104.679s-518.002,152.666-781.761,62.056  s-332.7-35.279-442.524,42.492L1920,400.127z"/>
<g xmlns="http://www.w3.org/2000/svg" opacity="0.15">
	<g>
		<g>
			<g>
				<polygon fill="#f09f54" points="1512.148,399.996 1545.238,312.429 1578.327,399.996     "/>
			</g>
			<g>
				<polygon fill="#f09f54" points="1555.578,399.996 1588.667,312.429 1621.756,399.996     "/>
			</g>
			<g>
				<polygon fill="#f09f54" points="1601.076,399.996 1634.165,312.429 1667.254,399.996     "/>
			</g>
			<g>
				<polygon fill="#f09f54" points="1384.961,399.996 1418.051,312.429 1451.14,399.996     "/>
			</g>
			<g>
				<polygon fill="#f09f54" points="1428.391,399.996 1461.48,312.429 1494.57,399.996     "/>
			</g>
			<g>
				<polygon fill="#f09f54" points="1473.889,399.996 1506.978,312.429 1540.067,399.996     "/>
			</g>
			<g>
				<polygon fill="#f09f54" points="1761.352,399.996 1794.441,312.429 1827.531,399.996     "/>
			</g>
			<g>
				<polygon fill="#f09f54" points="1804.782,399.996 1837.871,312.429 1870.96,399.996     "/>
			</g>
			<g>
				<polygon fill="#f09f54" points="1850.279,399.996 1883.369,312.429 1916.458,399.996     "/>
			</g>
			<g>
				<polygon fill="#f09f54" points="1634.165,399.996 1667.254,312.429 1700.344,399.996     "/>
			</g>
			<g>
				<polygon fill="#f09f54" points="1677.595,399.996 1710.684,312.429 1743.773,399.996     "/>
			</g>
			<g>
				<polygon fill="#f09f54" points="1723.092,399.996 1756.182,312.429 1789.271,399.996     "/>
			</g>
		</g>
	</g>
	<g>
		<g>
			<g>
				<polygon fill="#f09f54" points="1007.913,399.996 1041.002,312.429 1074.091,399.996     "/>
			</g>
			<g>
				<polygon fill="#f09f54" points="1051.342,399.996 1084.432,312.429 1117.521,399.996     "/>
			</g>
			<g>
				<polygon fill="#f09f54" points="1096.84,399.996 1129.929,312.429 1163.019,399.996     "/>
			</g>
			<g>
				<polygon fill="#f09f54" points="880.726,399.996 913.815,312.429 946.904,399.996     "/>
			</g>
			<g>
				<polygon fill="#f09f54" points="924.155,399.996 957.245,312.429 990.334,399.996     "/>
			</g>
			<g>
				<polygon fill="#f09f54" points="969.653,399.996 1002.742,312.429 1035.832,399.996     "/>
			</g>
			<g>
				<polygon fill="#f09f54" points="1257.116,399.996 1290.206,312.429 1323.295,399.996     "/>
			</g>
			<g>
				<polygon fill="#f09f54" points="1300.546,399.996 1333.635,312.429 1366.725,399.996     "/>
			</g>
			<g>
				<polygon fill="#f09f54" points="1346.044,399.996 1379.133,312.429 1412.222,399.996     "/>
			</g>
			<g>
				<polygon fill="#f09f54" points="1129.929,399.996 1163.019,312.429 1196.108,399.996     "/>
			</g>
			<g>
				<polygon fill="#f09f54" points="1173.359,399.996 1206.448,312.429 1239.538,399.996     "/>
			</g>
			<g>
				<polygon fill="#f09f54" points="1218.857,399.996 1251.946,312.429 1285.035,399.996     "/>
			</g>
		</g>
	</g>
</g>
<g xmlns="http://www.w3.org/2000/svg" opacity="0.15">
	<g>
		<g>
			<g>
				<polygon fill="#f09f54" points="646.232,399.996 679.322,312.429 712.411,399.996     "/>
			</g>
			<g>
				<polygon fill="#f09f54" points="689.662,399.996 722.751,312.429 755.841,399.996     "/>
			</g>
			<g>
				<polygon fill="#f09f54" points="735.16,399.996 768.249,312.429 801.339,399.996     "/>
			</g>
			<g>
				<polygon fill="#f09f54" points="519.045,399.996 552.135,312.429 585.224,399.996     "/>
			</g>
			<g>
				<polygon fill="#f09f54" points="562.475,399.996 595.564,312.429 628.654,399.996     "/>
			</g>
			<g>
				<polygon fill="#f09f54" points="607.973,399.996 641.062,312.429 674.152,399.996     "/>
			</g>
			<g>
				<polygon fill="#f09f54" points="895.436,399.996 928.525,312.429 961.615,399.996     "/>
			</g>
			<g>
				<polygon fill="#f09f54" points="938.866,399.996 971.955,312.429 1005.044,399.996     "/>
			</g>
			<g>
				<polygon fill="#f09f54" points="984.364,399.996 1017.453,312.429 1050.542,399.996     "/>
			</g>
			<g>
				<polygon fill="#f09f54" points="768.249,399.996 801.339,312.429 834.428,399.996     "/>
			</g>
			<g>
				<polygon fill="#f09f54" points="811.679,399.996 844.768,312.429 877.857,399.996     "/>
			</g>
			<g>
				<polygon fill="#f09f54" points="857.177,399.996 890.266,312.429 923.355,399.996     "/>
			</g>
		</g>
	</g>
	<g>
		<g>
			<g>
				<polygon fill="#f09f54" points="141.997,399.996 175.086,312.429 208.175,399.996     "/>
			</g>
			<g>
				<polygon fill="#f09f54" points="185.427,399.996 218.516,312.429 251.605,399.996     "/>
			</g>
			<g>
				<polygon fill="#f09f54" points="230.924,399.996 264.014,312.429 297.103,399.996     "/>
			</g>
			<g>
				<polygon fill="#f09f54" points="14.81,399.996 47.899,312.429 80.989,399.996     "/>
			</g>
			<g>
				<polygon fill="#f09f54" points="58.24,399.996 91.329,312.429 124.418,399.996     "/>
			</g>
			<g>
				<polygon fill="#f09f54" points="103.737,399.996 136.827,312.429 169.916,399.996     "/>
			</g>
			<g>
				<polygon fill="#f09f54" points="391.201,399.996 424.29,312.429 457.379,399.996     "/>
			</g>
			<g>
				<polygon fill="#f09f54" points="434.63,399.996 467.72,312.429 500.809,399.996     "/>
			</g>
			<g>
				<polygon fill="#f09f54" points="480.128,399.996 513.217,312.429 546.307,399.996     "/>
			</g>
			<g>
				<polygon fill="#f09f54" points="264.014,399.996 297.103,312.429 330.192,399.996     "/>
			</g>
			<g>
				<polygon fill="#f09f54" points="307.443,399.996 340.533,312.429 373.622,399.996     "/>
			</g>
			<g>
				<polygon fill="#f09f54" points="352.941,399.996 386.03,312.429 419.12,399.996     "/>
			</g>
		</g>
	</g>
</g>
<g xmlns="http://www.w3.org/2000/svg">
	<path fill="#f09f54" d="M1068.266,350.702c0,0,54.352-35.016,35.629-79.914s-85.79-62.069-110.287-6.467   c0,0-37.689-52.268-66.854-10.758c-29.165,41.51,2.222,51.367,14.402,58.38c34.944,20.122-20.614,58.981-35.298,17.298   c0,0-10.618,25.08,6.777,34.451c24.631,13.268,72.051,16.653,63.465-18.073c-10.142-41.018,30.703-27.989,29.009-48.813   c0,0-5.91,3.845-5.076,15.136C1001.654,333.903,1016.986,368.696,1068.266,350.702z"/>
	<path fill="#AD6F53" d="M993.609,382.034c0,0,28.402-47.638,33.284-64.581l20.157,30.143c0,0-4.722,42.598-13.012,46.713   C1025.748,398.424,993.609,382.034,993.609,382.034z"/>
	<path fill="#0E538C" d="M976.689,697.107c0,0,34.078,123.891,35.138,136.057c1.061,12.165-14.974,63.273,9.384,133.133   s27.972,77.685,27.972,77.685h18.399c0,0-20.128-146.527-12.34-192.271c7.788-45.744-26.585-227.871-31.066-253.077   l-152.608-30.239c0,0-11.495,56.54,15.842,104.491c9.891,17.35,24.32,94.151,23.906,112.441   c-0.415,18.289-37.952,68.874-36.795,150.421c0.164,11.522-3.256,108.234-3.256,108.234h16.096c0,0,68.139-211.795,70.728-246.871   S976.689,697.107,976.689,697.107z"/>
	<path fill="#f09f54" d="M985.49,372.998c0,0,62.407-17.496,80.026,49.128c0,0,12.031,24.869-14.23,89.252   c-26.262,64.383-23.81,78.412-19.953,113.755c0,0-96.904,57.315-148.63,30.26C830.977,628.339,924.284,397.96,985.49,372.998z"/>
	<path fill="#f09f54" d="M1079.241,445.582c0,0-39.489-38.53-102.787,0c-12.99,7.907-35.677,71.705-12.99,120.86   c3.389,7.342,41.793-15.249,66.642-59.865l1.694,9.036c0,0-11.295,37.275-71.161,72.29c0,0-6.01,42.724-109.565,51.394   c-15.178,1.271-60.289-42.146-35.06-94.093c0.617-1.271,0.308-2.814,0.511-4.221c2.61-18.046,10.757-36.005,27.772-51.349   c0,0,21.461-39.534,48.57-53.088c0,0-3.243-36.097,37.275-52.523c20.896-8.471,36.145,3.953,36.145,3.953s1.61-6.238,6.783-13.874   c0,0,7.822-8.734,3.947,22.91c-1.312,10.71,10.796,15.249,57.041,15.249C1056.651,412.261,1089.972,433.722,1079.241,445.582z"/>
	<path fill="#FFFFFF" d="M816.976,538.204c0,0-1.422,11.86,44.265,8.471v9.601c0,0-30.944,5.648-45.687-6.212   C815.555,550.064,811.68,539.898,816.976,538.204z"/>
	<path fill="#f09f54" d="M1086.583,445.3c0,0,36.71,37.557,32.474,92.904s-24.567,48.57-24.567,48.57   S1053.923,469.867,1086.583,445.3z"/>
	<path fill="#0E538C" d="M1013.53,430.331c0,0-4.602,47.161,18.271,85.283s49.135,67.772,62.689,71.161   c13.554,3.389,8.471-61.842,8.471-61.842s-19.202-64.383-29.615-83.93C1065.769,426.779,1067.075,416.423,1013.53,430.331z"/>
	<path fill="#B97A59" d="M1072.464,423.756c0,0,9.534,2.98,18.18,26.24l-9.33,9.565c0,0-13.07-29.786-19.008-33.742   S1072.464,423.756,1072.464,423.756z"/>
	<path fill="#B97A59" d="M1083.78,264.32c0,0,16.439,20.744,12.133,52.839c-4.305,32.095-36.009,64.972-75.148,21.527   c0,0-7.437-9.394-8.611-19.179c0,0-14.482-9.394-7.045-22.701c7.437-13.308,16.439-1.566,15.656,4.697   c-0.783,6.262,1.957,14.09,3.523,5.871c1.566-8.219,6.262-19.178,21.135-28.572c14.873-9.394,16.83,10.568,27.789,1.957   C1084.172,272.148,1083.78,264.32,1083.78,264.32z"/>
	<path fill="#f09f54" d="M1065.073,1024.544c4.567,9.525,10.78,11.784,23.205,12.349c12.425,0.565,19.767,4.518,20.896,10.166   c1.13,5.648,0,14.119,0,14.119h-67.772c0,0-5.581-14.499,3.14-29.276c0,0,13.239,9.704,21.71,1.982L1065.073,1024.544z"/>
	<path fill="#f09f54" d="M893.56,1024.544c4.567,9.525,8.345,11.784,20.77,12.349c12.425,0.565,19.767,4.518,20.896,10.166   c1.13,5.648,0,14.119,0,14.119h-67.772c0,0-5.581-14.499,3.139-29.276c0,0,11.5,9.785,19.972,2.063L893.56,1024.544z"/>
</g>
<g xmlns="http://www.w3.org/2000/svg">
	<g>
		<path fill="#CCE9FF" d="M1639.4,397.311c3.217,0,3.223-5,0-5C1636.183,392.311,1636.177,397.311,1639.4,397.311L1639.4,397.311z"/>
	</g>
</g>
</svg>